<svg xmlns="http://www.w3.org/2000/svg" viewBox="0 0 160 164" role="img" aria-labelledby="title">
  <title id="title">IDLE — stacked logo, alternative 2</title>
  <rect x="40" y="12" width="80" height="80" rx="6" fill="#111"/>
  <path d="M62 32h12v40H62zm24 0h12v22H86zm0 30h12v10H86z" fill="#F1EDE4"/>
  <g transform="translate(31.5 112)" fill="#111">
    <path d="M0 0h6v26H0zM14 0h10c18 0 18 26 0 26H14zm6 5v16h4c10 0 10-16 0-16z" fill-rule="evenodd"/>
    <path d="M44 0h6v21h15v5H44zm29 0h24v5H79v5h15v5H79v6h18v5H73z"/>
  </g>
</svg>
